<?xml version="1.0" encoding="UTF-8" standalone="no"?>
<!DOCTYPE svg PUBLIC "-//W3C//DTD SVG 1.1//EN"
 "http://www.w3.org/Graphics/SVG/1.1/DTD/svg11.dtd">
<!-- Generated by graphviz version 2.46.0 (20210119.1425)
 -->
<!-- Title: dependencies Pages: 1 -->
<svg width="1750pt" height="284pt"
 viewBox="0.00 0.00 1750.00 284.00" xmlns="http://www.w3.org/2000/svg" xmlns:xlink="http://www.w3.org/1999/xlink">
<g id="graph0" class="graph" transform="scale(1 1) rotate(0) translate(4 280)">
<title>dependencies</title>
<polygon fill="white" stroke="transparent" points="-4,4 -4,-280 1746,-280 1746,4 -4,4"/>
<text text-anchor="start" x="850.01" y="-42.4" font-family="sans-serif" font-weight="bold" font-size="14.00">Legend</text>
<polygon fill="#ffffb3" stroke="transparent" points="637,-10 637,-30 657,-30 657,-10 637,-10"/>
<text text-anchor="start" x="660.63" y="-15.4" font-family="sans-serif" font-size="14.00"> &#160;Declarations</text>
<polygon fill="#8dd3c7" stroke="transparent" points="750,-10 750,-30 770,-30 770,-10 750,-10"/>
<text text-anchor="start" x="773.73" y="-15.4" font-family="sans-serif" font-size="14.00"> &#160;Module</text>
<polygon fill="#80b1d3" stroke="transparent" points="836,-10 836,-30 856,-30 856,-10 836,-10"/>
<text text-anchor="start" x="859.78" y="-15.4" font-family="sans-serif" font-size="14.00"> &#160;Bootstrap</text>
<polygon fill="#fdb462" stroke="transparent" points="933,-10 933,-30 953,-30 953,-10 933,-10"/>
<text text-anchor="start" x="956.67" y="-15.4" font-family="sans-serif" font-size="14.00"> &#160;Providers</text>
<polygon fill="#fb8072" stroke="transparent" points="1029,-10 1029,-30 1049,-30 1049,-10 1029,-10"/>
<text text-anchor="start" x="1052.73" y="-15.4" font-family="sans-serif" font-size="14.00"> &#160;Exports</text>
<g id="clust1" class="cluster">
<title>cluster_SharedModule</title>
<polygon fill="none" stroke="black" stroke-dasharray="1,5" points="8,-70 8,-268 1734,-268 1734,-70 8,-70"/>
</g>
<g id="clust13" class="cluster">
<title>cluster_SharedModule_exports</title>
<polygon fill="none" stroke="black" points="347,-208 347,-260 1093,-260 1093,-208 347,-208"/>
</g>
<g id="clust2" class="cluster">
<title>cluster_SharedModule_declarations</title>
<polygon fill="none" stroke="black" points="16,-78 16,-130 1726,-130 1726,-78 16,-78"/>
</g>
<!-- CountryFlagComponent -->
<g id="node1" class="node">
<title>CountryFlagComponent</title>
<polygon fill="#ffffb3" stroke="black" points="1718.11,-122 1565.89,-122 1565.89,-86 1718.11,-86 1718.11,-122"/>
<text text-anchor="middle" x="1642" y="-99.8" font-family="Times,serif" font-size="14.00">CountryFlagComponent</text>
</g>
<!-- SharedModule -->
<g id="node10" class="node">
<title>SharedModule</title>
<polygon fill="#8dd3c7" stroke="black" points="794.42,-187 791.42,-191 770.42,-191 767.42,-187 695.58,-187 695.58,-151 794.42,-151 794.42,-187"/>
<text text-anchor="middle" x="745" y="-164.8" font-family="Times,serif" font-size="14.00">SharedModule</text>
</g>
<!-- CountryFlagComponent&#45;&gt;SharedModule -->
<g id="edge1" class="edge">
<title>CountryFlagComponent&#45;&gt;SharedModule</title>
<path fill="none" stroke="black" d="M1642,-122.28C1642,-143.32 1642,-175 1642,-175 1642,-175 804.5,-175 804.5,-175"/>
<polygon fill="black" stroke="black" points="804.5,-171.5 794.5,-175 804.5,-178.5 804.5,-171.5"/>
</g>
<!-- CurrentWeatherDetailsContainerComponent -->
<g id="node2" class="node">
<title>CurrentWeatherDetailsContainerComponent</title>
<polygon fill="#ffffb3" stroke="black" points="1548.37,-122 1281.63,-122 1281.63,-86 1548.37,-86 1548.37,-122"/>
<text text-anchor="middle" x="1415" y="-99.8" font-family="Times,serif" font-size="14.00">CurrentWeatherDetailsContainerComponent</text>
</g>
<!-- CurrentWeatherDetailsContainerComponent&#45;&gt;SharedModule -->
<g id="edge2" class="edge">
<title>CurrentWeatherDetailsContainerComponent&#45;&gt;SharedModule</title>
<path fill="none" stroke="black" d="M1415,-122.11C1415,-141.34 1415,-169 1415,-169 1415,-169 804.27,-169 804.27,-169"/>
<polygon fill="black" stroke="black" points="804.27,-165.5 794.27,-169 804.27,-172.5 804.27,-165.5"/>
</g>
<!-- CurrentWeatherSummaryContainerComponent -->
<g id="node3" class="node">
<title>CurrentWeatherSummaryContainerComponent</title>
<polygon fill="#ffffb3" stroke="black" points="1263.65,-122 982.35,-122 982.35,-86 1263.65,-86 1263.65,-122"/>
<text text-anchor="middle" x="1123" y="-99.8" font-family="Times,serif" font-size="14.00">CurrentWeatherSummaryContainerComponent</text>
</g>
<!-- CurrentWeatherSummaryContainerComponent&#45;&gt;SharedModule -->
<g id="edge3" class="edge">
<title>CurrentWeatherSummaryContainerComponent&#45;&gt;SharedModule</title>
<path fill="none" stroke="black" d="M1033.61,-122.02C1033.61,-139.37 1033.61,-163 1033.61,-163 1033.61,-163 804.29,-163 804.29,-163"/>
<polygon fill="black" stroke="black" points="804.29,-159.5 794.29,-163 804.29,-166.5 804.29,-159.5"/>
</g>
<!-- InfoCardComponent -->
<g id="node4" class="node">
<title>InfoCardComponent</title>
<polygon fill="#ffffb3" stroke="black" points="963.87,-122 832.13,-122 832.13,-86 963.87,-86 963.87,-122"/>
<text text-anchor="middle" x="898" y="-99.8" font-family="Times,serif" font-size="14.00">InfoCardComponent</text>
</g>
<!-- InfoCardComponent&#45;&gt;SharedModule -->
<g id="edge4" class="edge">
<title>InfoCardComponent&#45;&gt;SharedModule</title>
<path fill="none" stroke="black" d="M871.62,-122.24C871.62,-137.57 871.62,-157 871.62,-157 871.62,-157 804.32,-157 804.32,-157"/>
<polygon fill="black" stroke="black" points="804.32,-153.5 794.32,-157 804.32,-160.5 804.32,-153.5"/>
</g>
<!-- PlaceCardComponent -->
<g id="node5" class="node">
<title>PlaceCardComponent</title>
<polygon fill="#ffffb3" stroke="black" points="814.36,-122 675.64,-122 675.64,-86 814.36,-86 814.36,-122"/>
<text text-anchor="middle" x="745" y="-99.8" font-family="Times,serif" font-size="14.00">PlaceCardComponent</text>
</g>
<!-- PlaceCardComponent&#45;&gt;SharedModule -->
<g id="edge5" class="edge">
<title>PlaceCardComponent&#45;&gt;SharedModule</title>
<path fill="none" stroke="black" d="M745,-122.11C745,-122.11 745,-140.99 745,-140.99"/>
<polygon fill="black" stroke="black" points="741.5,-140.99 745,-150.99 748.5,-140.99 741.5,-140.99"/>
</g>
<!-- PlaceHourlyForecastComponent -->
<g id="node6" class="node">
<title>PlaceHourlyForecastComponent</title>
<polygon fill="#ffffb3" stroke="black" points="657.23,-122 458.77,-122 458.77,-86 657.23,-86 657.23,-122"/>
<text text-anchor="middle" x="558" y="-99.8" font-family="Times,serif" font-size="14.00">PlaceHourlyForecastComponent</text>
</g>
<!-- PlaceHourlyForecastComponent&#45;&gt;SharedModule -->
<g id="edge6" class="edge">
<title>PlaceHourlyForecastComponent&#45;&gt;SharedModule</title>
<path fill="none" stroke="black" d="M603.12,-122.24C603.12,-137.57 603.12,-157 603.12,-157 603.12,-157 685.78,-157 685.78,-157"/>
<polygon fill="black" stroke="black" points="685.78,-160.5 695.78,-157 685.78,-153.5 685.78,-160.5"/>
</g>
<!-- RoundoffPipe -->
<g id="node7" class="node">
<title>RoundoffPipe</title>
<polygon fill="#ffffb3" stroke="black" points="440.05,-122 345.95,-122 345.95,-86 440.05,-86 440.05,-122"/>
<text text-anchor="middle" x="393" y="-99.8" font-family="Times,serif" font-size="14.00">RoundoffPipe</text>
</g>
<!-- RoundoffPipe&#45;&gt;SharedModule -->
<g id="edge7" class="edge">
<title>RoundoffPipe&#45;&gt;SharedModule</title>
<path fill="none" stroke="black" d="M397.69,-122.02C397.69,-139.37 397.69,-163 397.69,-163 397.69,-163 685.61,-163 685.61,-163"/>
<polygon fill="black" stroke="black" points="685.61,-166.5 695.61,-163 685.61,-159.5 685.61,-166.5"/>
</g>
<!-- SmartPlaceCardComponent -->
<g id="node8" class="node">
<title>SmartPlaceCardComponent</title>
<polygon fill="#ffffb3" stroke="black" points="328.3,-122 155.7,-122 155.7,-86 328.3,-86 328.3,-122"/>
<text text-anchor="middle" x="242" y="-99.8" font-family="Times,serif" font-size="14.00">SmartPlaceCardComponent</text>
</g>
<!-- SmartPlaceCardComponent&#45;&gt;SharedModule -->
<g id="edge8" class="edge">
<title>SmartPlaceCardComponent&#45;&gt;SharedModule</title>
<path fill="none" stroke="black" d="M242,-122.11C242,-141.34 242,-169 242,-169 242,-169 685.39,-169 685.39,-169"/>
<polygon fill="black" stroke="black" points="685.39,-172.5 695.39,-169 685.39,-165.5 685.39,-172.5"/>
</g>
<!-- WeatherIconPipe -->
<g id="node9" class="node">
<title>WeatherIconPipe</title>
<polygon fill="#ffffb3" stroke="black" points="137.67,-122 24.33,-122 24.33,-86 137.67,-86 137.67,-122"/>
<text text-anchor="middle" x="81" y="-99.8" font-family="Times,serif" font-size="14.00">WeatherIconPipe</text>
</g>
<!-- WeatherIconPipe&#45;&gt;SharedModule -->
<g id="edge9" class="edge">
<title>WeatherIconPipe&#45;&gt;SharedModule</title>
<path fill="none" stroke="black" d="M81,-122.28C81,-143.32 81,-175 81,-175 81,-175 685.63,-175 685.63,-175"/>
<polygon fill="black" stroke="black" points="685.63,-178.5 695.63,-175 685.63,-171.5 685.63,-178.5"/>
</g>
<!-- CountryFlagComponent  -->
<g id="node11" class="node">
<title>CountryFlagComponent </title>
<polygon fill="#fb8072" stroke="black" points="1084.61,-252 929.39,-252 929.39,-216 1084.61,-216 1084.61,-252"/>
<text text-anchor="middle" x="1007" y="-229.8" font-family="Times,serif" font-size="14.00">CountryFlagComponent </text>
</g>
<!-- SharedModule&#45;&gt;CountryFlagComponent  -->
<g id="edge10" class="edge">
<title>SharedModule&#45;&gt;CountryFlagComponent </title>
<path fill="none" stroke="black" stroke-dasharray="5,2" d="M794.31,-181C853.98,-181 946.56,-181 946.56,-181 946.56,-181 946.56,-205.76 946.56,-205.76"/>
<polygon fill="black" stroke="black" points="943.06,-205.76 946.56,-215.76 950.06,-205.76 943.06,-205.76"/>
</g>
<!-- PlaceCardComponent  -->
<g id="node12" class="node">
<title>PlaceCardComponent </title>
<polygon fill="#fb8072" stroke="black" points="911.36,-252 768.64,-252 768.64,-216 911.36,-216 911.36,-252"/>
<text text-anchor="middle" x="840" y="-229.8" font-family="Times,serif" font-size="14.00">PlaceCardComponent </text>
</g>
<!-- SharedModule&#45;&gt;PlaceCardComponent  -->
<g id="edge11" class="edge">
<title>SharedModule&#45;&gt;PlaceCardComponent </title>
<path fill="none" stroke="black" stroke-dasharray="5,2" d="M781.52,-187.11C781.52,-187.11 781.52,-205.99 781.52,-205.99"/>
<polygon fill="black" stroke="black" points="778.02,-205.99 781.52,-215.99 785.02,-205.99 778.02,-205.99"/>
</g>
<!-- PlaceHourlyForecastComponent  -->
<g id="node13" class="node">
<title>PlaceHourlyForecastComponent </title>
<polygon fill="#fb8072" stroke="black" points="751.23,-252 548.77,-252 548.77,-216 751.23,-216 751.23,-252"/>
<text text-anchor="middle" x="650" y="-229.8" font-family="Times,serif" font-size="14.00">PlaceHourlyForecastComponent </text>
</g>
<!-- SharedModule&#45;&gt;PlaceHourlyForecastComponent  -->
<g id="edge12" class="edge">
<title>SharedModule&#45;&gt;PlaceHourlyForecastComponent </title>
<path fill="none" stroke="black" stroke-dasharray="5,2" d="M723.45,-187.11C723.45,-187.11 723.45,-205.99 723.45,-205.99"/>
<polygon fill="black" stroke="black" points="719.95,-205.99 723.45,-215.99 726.95,-205.99 719.95,-205.99"/>
</g>
<!-- SmartPlaceCardComponent  -->
<g id="node14" class="node">
<title>SmartPlaceCardComponent </title>
<polygon fill="#fb8072" stroke="black" points="530.8,-252 355.2,-252 355.2,-216 530.8,-216 530.8,-252"/>
<text text-anchor="middle" x="443" y="-229.8" font-family="Times,serif" font-size="14.00">SmartPlaceCardComponent </text>
</g>
<!-- SharedModule&#45;&gt;SmartPlaceCardComponent  -->
<g id="edge13" class="edge">
<title>SharedModule&#45;&gt;SmartPlaceCardComponent </title>
<path fill="none" stroke="black" stroke-dasharray="5,2" d="M695.56,-181C622.64,-181 494.77,-181 494.77,-181 494.77,-181 494.77,-205.76 494.77,-205.76"/>
<polygon fill="black" stroke="black" points="491.27,-205.76 494.77,-215.76 498.27,-205.76 491.27,-205.76"/>
</g>
</g>
</svg>
