<?xml version="1.0" standalone="no"?>
<!DOCTYPE svg PUBLIC "-//W3C//DTD SVG 20010904//EN"
 "http://www.w3.org/TR/2001/REC-SVG-20010904/DTD/svg10.dtd">
<svg version="1.0" xmlns="http://www.w3.org/2000/svg"
 width="256.000000pt" height="256.000000pt" viewBox="0 0 256.000000 256.000000"
 preserveAspectRatio="xMidYMid meet">

<g transform="translate(0.000000,256.000000) scale(0.100000,-0.100000)"
fill="#ffffff" stroke="none">
<path d="M840 2328 c-100 -27 -119 -34 -165 -58 -82 -42 -139 -85 -206 -158
-139 -151 -209 -366 -180 -554 19 -123 36 -176 87 -263 82 -145 230 -270 374
-319 85 -28 199 -46 295 -46 55 0 95 -4 95 -10 0 -11 -79 -184 -146 -323 -13
-27 -24 -51 -24 -54 0 -6 82 1 172 13 84 11 84 8 23 -117 -30 -62 -55 -125
-55 -141 0 -91 100 -141 167 -84 19 16 77 121 171 308 78 156 142 290 142 297
0 10 -12 12 -52 7 -146 -17 -198 -19 -198 -7 0 6 21 55 46 109 95 201 99 213
82 224 -7 4 -137 8 -288 8 -290 0 -312 3 -415 51 -28 13 -80 53 -118 90 -71
71 -108 137 -133 239 -58 238 96 490 345 566 64 20 206 18 273 -4 143 -47 258
-156 309 -293 15 -41 48 -264 49 -331 0 -24 39 0 115 71 22 20 63 51 91 69 45
28 59 32 123 32 84 0 127 -18 182 -77 48 -51 64 -95 63 -173 -1 -75 -23 -127
-76 -177 -37 -35 -97 -63 -137 -63 -43 0 -38 6 -123 -177 -6 -12 -8 -29 -5
-37 12 -31 200 -14 269 24 10 6 23 10 29 10 17 0 117 77 153 118 132 150 153
373 52 547 -56 95 -175 184 -287 214 -42 12 -191 11 -253 0 -19 -4 -27 7 -56
71 -46 102 -108 182 -199 255 -134 108 -273 155 -451 154 -58 -1 -121 -5 -140
-11z"/>
</g>
</svg>
