<?xml version="1.0" encoding="UTF-8" standalone="no"?>
<!DOCTYPE svg PUBLIC "-//W3C//DTD SVG 1.1//EN"
 "http://www.w3.org/Graphics/SVG/1.1/DTD/svg11.dtd">
<!-- Generated by graphviz version 2.46.0 (20210119.1425)
 -->
<!-- Title: dependencies Pages: 1 -->
<svg width="2137pt" height="284pt"
 viewBox="0.00 0.00 2137.00 284.00" xmlns="http://www.w3.org/2000/svg" xmlns:xlink="http://www.w3.org/1999/xlink">
<g id="graph0" class="graph" transform="scale(1 1) rotate(0) translate(4 280)">
<title>dependencies</title>
<polygon fill="white" stroke="transparent" points="-4,4 -4,-280 2133,-280 2133,4 -4,4"/>
<text text-anchor="start" x="1043.51" y="-42.4" font-family="sans-serif" font-weight="bold" font-size="14.00">Legend</text>
<polygon fill="#ffffb3" stroke="transparent" points="830.5,-10 830.5,-30 850.5,-30 850.5,-10 830.5,-10"/>
<text text-anchor="start" x="854.13" y="-15.4" font-family="sans-serif" font-size="14.00"> &#160;Declarations</text>
<polygon fill="#8dd3c7" stroke="transparent" points="943.5,-10 943.5,-30 963.5,-30 963.5,-10 943.5,-10"/>
<text text-anchor="start" x="967.23" y="-15.4" font-family="sans-serif" font-size="14.00"> &#160;Module</text>
<polygon fill="#80b1d3" stroke="transparent" points="1029.5,-10 1029.5,-30 1049.5,-30 1049.5,-10 1029.5,-10"/>
<text text-anchor="start" x="1053.28" y="-15.4" font-family="sans-serif" font-size="14.00"> &#160;Bootstrap</text>
<polygon fill="#fdb462" stroke="transparent" points="1126.5,-10 1126.5,-30 1146.5,-30 1146.5,-10 1126.5,-10"/>
<text text-anchor="start" x="1150.17" y="-15.4" font-family="sans-serif" font-size="14.00"> &#160;Providers</text>
<polygon fill="#fb8072" stroke="transparent" points="1222.5,-10 1222.5,-30 1242.5,-30 1242.5,-10 1222.5,-10"/>
<text text-anchor="start" x="1246.23" y="-15.4" font-family="sans-serif" font-size="14.00"> &#160;Exports</text>
<g id="clust1" class="cluster">
<title>cluster_AppModule</title>
<polygon fill="none" stroke="black" stroke-dasharray="1,5" points="8,-70 8,-268 2121,-268 2121,-70 8,-70"/>
</g>
<g id="clust2" class="cluster">
<title>cluster_AppModule_declarations</title>
<polygon fill="none" stroke="black" points="1129,-78 1129,-130 2113,-130 2113,-78 1129,-78"/>
</g>
<g id="clust12" class="cluster">
<title>cluster_AppModule_providers</title>
<polygon fill="none" stroke="black" points="390,-78 390,-130 1121,-130 1121,-78 390,-78"/>
</g>
<g id="clust9" class="cluster">
<title>cluster_AppModule_imports</title>
<polygon fill="none" stroke="black" points="16,-78 16,-130 382,-130 382,-78 16,-78"/>
</g>
<g id="clust11" class="cluster">
<title>cluster_AppModule_bootstrap</title>
<polygon fill="none" stroke="black" points="1054,-208 1054,-260 1178,-260 1178,-208 1054,-208"/>
</g>
<!-- AppComponent -->
<g id="node1" class="node">
<title>AppComponent</title>
<polygon fill="#ffffb3" stroke="black" points="2104.94,-122 1999.06,-122 1999.06,-86 2104.94,-86 2104.94,-122"/>
<text text-anchor="middle" x="2052" y="-99.8" font-family="Times,serif" font-size="14.00">AppComponent</text>
</g>
<!-- AppModule -->
<g id="node7" class="node">
<title>AppModule</title>
<polygon fill="#8dd3c7" stroke="black" points="1157.66,-187 1154.66,-191 1133.66,-191 1130.66,-187 1074.34,-187 1074.34,-151 1157.66,-151 1157.66,-187"/>
<text text-anchor="middle" x="1116" y="-164.8" font-family="Times,serif" font-size="14.00">AppModule</text>
</g>
<!-- AppComponent&#45;&gt;AppModule -->
<g id="edge1" class="edge">
<title>AppComponent&#45;&gt;AppModule</title>
<path fill="none" stroke="black" d="M2052,-122.09C2052,-145.13 2052,-182 2052,-182 2052,-182 1167.73,-182 1167.73,-182"/>
<polygon fill="black" stroke="black" points="1167.73,-178.5 1157.73,-182 1167.73,-185.5 1167.73,-178.5"/>
</g>
<!-- CityDetailsContainerComponent -->
<g id="node2" class="node">
<title>CityDetailsContainerComponent</title>
<polygon fill="#ffffb3" stroke="black" points="1981.31,-122 1780.69,-122 1780.69,-86 1981.31,-86 1981.31,-122"/>
<text text-anchor="middle" x="1881" y="-99.8" font-family="Times,serif" font-size="14.00">CityDetailsContainerComponent</text>
</g>
<!-- CityDetailsContainerComponent&#45;&gt;AppModule -->
<g id="edge2" class="edge">
<title>CityDetailsContainerComponent&#45;&gt;AppModule</title>
<path fill="none" stroke="black" d="M1881,-122.04C1881,-143.66 1881,-177 1881,-177 1881,-177 1167.67,-177 1167.67,-177"/>
<polygon fill="black" stroke="black" points="1167.67,-173.5 1157.67,-177 1167.67,-180.5 1167.67,-173.5"/>
</g>
<!-- CitySearchComponent -->
<g id="node3" class="node">
<title>CitySearchComponent</title>
<polygon fill="#ffffb3" stroke="black" points="1762.54,-122 1619.46,-122 1619.46,-86 1762.54,-86 1762.54,-122"/>
<text text-anchor="middle" x="1691" y="-99.8" font-family="Times,serif" font-size="14.00">CitySearchComponent</text>
</g>
<!-- CitySearchComponent&#45;&gt;AppModule -->
<g id="edge3" class="edge">
<title>CitySearchComponent&#45;&gt;AppModule</title>
<path fill="none" stroke="black" d="M1691,-122.22C1691,-142.37 1691,-172 1691,-172 1691,-172 1167.82,-172 1167.82,-172"/>
<polygon fill="black" stroke="black" points="1167.82,-168.5 1157.82,-172 1167.82,-175.5 1167.82,-168.5"/>
</g>
<!-- DashboardComponent -->
<g id="node4" class="node">
<title>DashboardComponent</title>
<polygon fill="#ffffb3" stroke="black" points="1600.97,-122 1459.03,-122 1459.03,-86 1600.97,-86 1600.97,-122"/>
<text text-anchor="middle" x="1530" y="-99.8" font-family="Times,serif" font-size="14.00">DashboardComponent</text>
</g>
<!-- DashboardComponent&#45;&gt;AppModule -->
<g id="edge4" class="edge">
<title>DashboardComponent&#45;&gt;AppModule</title>
<path fill="none" stroke="black" d="M1530,-122.22C1530,-140.83 1530,-167 1530,-167 1530,-167 1167.97,-167 1167.97,-167"/>
<polygon fill="black" stroke="black" points="1167.97,-163.5 1157.97,-167 1167.97,-170.5 1167.97,-163.5"/>
</g>
<!-- FavoritePlacesComponent -->
<g id="node5" class="node">
<title>FavoritePlacesComponent</title>
<polygon fill="#ffffb3" stroke="black" points="1440.75,-122 1277.25,-122 1277.25,-86 1440.75,-86 1440.75,-122"/>
<text text-anchor="middle" x="1359" y="-99.8" font-family="Times,serif" font-size="14.00">FavoritePlacesComponent</text>
</g>
<!-- FavoritePlacesComponent&#45;&gt;AppModule -->
<g id="edge5" class="edge">
<title>FavoritePlacesComponent&#45;&gt;AppModule</title>
<path fill="none" stroke="black" d="M1386.29,-122.03C1386.29,-139.06 1386.29,-162 1386.29,-162 1386.29,-162 1167.94,-162 1167.94,-162"/>
<polygon fill="black" stroke="black" points="1167.94,-158.5 1157.94,-162 1167.94,-165.5 1167.94,-158.5"/>
</g>
<!-- FavoritePlacesComponent&#45;&gt;AppModule -->
<g id="edge6" class="edge">
<title>FavoritePlacesComponent&#45;&gt;AppModule</title>
<path fill="none" stroke="black" d="M1331.71,-122.24C1331.71,-137.57 1331.71,-157 1331.71,-157 1331.71,-157 1167.85,-157 1167.85,-157"/>
<polygon fill="black" stroke="black" points="1167.85,-153.5 1157.85,-157 1167.85,-160.5 1167.85,-153.5"/>
</g>
<!-- HeaderComponent -->
<g id="node6" class="node">
<title>HeaderComponent</title>
<polygon fill="#ffffb3" stroke="black" points="1258.74,-122 1137.26,-122 1137.26,-86 1258.74,-86 1258.74,-122"/>
<text text-anchor="middle" x="1198" y="-99.8" font-family="Times,serif" font-size="14.00">HeaderComponent</text>
</g>
<!-- HeaderComponent&#45;&gt;AppModule -->
<g id="edge7" class="edge">
<title>HeaderComponent&#45;&gt;AppModule</title>
<path fill="none" stroke="black" d="M1147.48,-122.11C1147.48,-122.11 1147.48,-140.99 1147.48,-140.99"/>
<polygon fill="black" stroke="black" points="1143.98,-140.99 1147.48,-150.99 1150.98,-140.99 1143.98,-140.99"/>
</g>
<!-- AppComponent  -->
<g id="node11" class="node">
<title>AppComponent </title>
<polygon fill="#80b1d3" stroke="black" points="1170.44,-252 1061.56,-252 1061.56,-216 1170.44,-216 1170.44,-252"/>
<text text-anchor="middle" x="1116" y="-229.8" font-family="Times,serif" font-size="14.00">AppComponent </text>
</g>
<!-- AppModule&#45;&gt;AppComponent  -->
<g id="edge11" class="edge">
<title>AppModule&#45;&gt;AppComponent </title>
<path fill="none" stroke="black" stroke-dasharray="1,5" d="M1116,-187.11C1116,-187.11 1116,-205.99 1116,-205.99"/>
<polygon fill="black" stroke="black" points="1112.5,-205.99 1116,-215.99 1119.5,-205.99 1112.5,-205.99"/>
</g>
<!-- AppRoutingModule -->
<g id="node8" class="node">
<title>AppRoutingModule</title>
<polygon fill="#8dd3c7" stroke="black" points="374.27,-122 371.27,-126 350.27,-126 347.27,-122 245.73,-122 245.73,-86 374.27,-86 374.27,-122"/>
<text text-anchor="middle" x="310" y="-99.8" font-family="Times,serif" font-size="14.00">AppRoutingModule</text>
</g>
<!-- AppRoutingModule&#45;&gt;AppModule -->
<g id="edge8" class="edge">
<title>AppRoutingModule&#45;&gt;AppModule</title>
<path fill="none" stroke="black" d="M310,-122.22C310,-142.37 310,-172 310,-172 310,-172 1064.08,-172 1064.08,-172"/>
<polygon fill="black" stroke="black" points="1064.08,-175.5 1074.08,-172 1064.08,-168.5 1064.08,-175.5"/>
</g>
<!-- CoreModule -->
<g id="node9" class="node">
<title>CoreModule</title>
<polygon fill="#8dd3c7" stroke="black" points="227.26,-122 224.26,-126 203.26,-126 200.26,-122 140.74,-122 140.74,-86 227.26,-86 227.26,-122"/>
<text text-anchor="middle" x="184" y="-99.8" font-family="Times,serif" font-size="14.00">CoreModule</text>
</g>
<!-- CoreModule&#45;&gt;AppModule -->
<g id="edge9" class="edge">
<title>CoreModule&#45;&gt;AppModule</title>
<path fill="none" stroke="black" d="M184,-122.04C184,-143.66 184,-177 184,-177 184,-177 1064.14,-177 1064.14,-177"/>
<polygon fill="black" stroke="black" points="1064.14,-180.5 1074.14,-177 1064.14,-173.5 1064.14,-180.5"/>
</g>
<!-- SharedModule -->
<g id="node10" class="node">
<title>SharedModule</title>
<polygon fill="#8dd3c7" stroke="black" points="122.42,-122 119.42,-126 98.42,-126 95.42,-122 23.58,-122 23.58,-86 122.42,-86 122.42,-122"/>
<text text-anchor="middle" x="73" y="-99.8" font-family="Times,serif" font-size="14.00">SharedModule</text>
</g>
<!-- SharedModule&#45;&gt;AppModule -->
<g id="edge10" class="edge">
<title>SharedModule&#45;&gt;AppModule</title>
<path fill="none" stroke="black" d="M73,-122.09C73,-145.13 73,-182 73,-182 73,-182 1064.15,-182 1064.15,-182"/>
<polygon fill="black" stroke="black" points="1064.15,-185.5 1074.15,-182 1064.15,-178.5 1064.15,-185.5"/>
</g>
<!-- DataStoreService -->
<g id="node12" class="node">
<title>DataStoreService</title>
<ellipse fill="#fdb462" stroke="black" cx="1034" cy="-104" rx="78.7" ry="18"/>
<text text-anchor="middle" x="1034" y="-99.8" font-family="Times,serif" font-size="14.00">DataStoreService</text>
</g>
<!-- DataStoreService&#45;&gt;AppModule -->
<g id="edge12" class="edge">
<title>DataStoreService&#45;&gt;AppModule</title>
<path fill="none" stroke="black" d="M1093.39,-115.92C1093.39,-115.92 1093.39,-140.77 1093.39,-140.77"/>
<polygon fill="black" stroke="black" points="1089.89,-140.77 1093.39,-150.77 1096.89,-140.77 1089.89,-140.77"/>
</g>
<!-- GooglePlacesService -->
<g id="node13" class="node">
<title>GooglePlacesService</title>
<ellipse fill="#fdb462" stroke="black" cx="844" cy="-104" rx="93.17" ry="18"/>
<text text-anchor="middle" x="844" y="-99.8" font-family="Times,serif" font-size="14.00">GooglePlacesService</text>
</g>
<!-- GooglePlacesService&#45;&gt;AppModule -->
<g id="edge13" class="edge">
<title>GooglePlacesService&#45;&gt;AppModule</title>
<path fill="none" stroke="black" d="M844,-122.24C844,-137.57 844,-157 844,-157 844,-157 1064.1,-157 1064.1,-157"/>
<polygon fill="black" stroke="black" points="1064.1,-160.5 1074.1,-157 1064.1,-153.5 1064.1,-160.5"/>
</g>
<!-- OpenWeatherService -->
<g id="node14" class="node">
<title>OpenWeatherService</title>
<ellipse fill="#fdb462" stroke="black" cx="639" cy="-104" rx="93.72" ry="18"/>
<text text-anchor="middle" x="639" y="-99.8" font-family="Times,serif" font-size="14.00">OpenWeatherService</text>
</g>
<!-- OpenWeatherService&#45;&gt;AppModule -->
<g id="edge14" class="edge">
<title>OpenWeatherService&#45;&gt;AppModule</title>
<path fill="none" stroke="black" d="M639,-122.03C639,-139.06 639,-162 639,-162 639,-162 1064.09,-162 1064.09,-162"/>
<polygon fill="black" stroke="black" points="1064.09,-165.5 1074.09,-162 1064.09,-158.5 1064.09,-165.5"/>
</g>
<!-- PlacesService -->
<g id="node15" class="node">
<title>PlacesService</title>
<ellipse fill="#fdb462" stroke="black" cx="463" cy="-104" rx="64.82" ry="18"/>
<text text-anchor="middle" x="463" y="-99.8" font-family="Times,serif" font-size="14.00">PlacesService</text>
</g>
<!-- PlacesService&#45;&gt;AppModule -->
<g id="edge15" class="edge">
<title>PlacesService&#45;&gt;AppModule</title>
<path fill="none" stroke="black" d="M463,-122.22C463,-140.83 463,-167 463,-167 463,-167 1064.16,-167 1064.16,-167"/>
<polygon fill="black" stroke="black" points="1064.16,-170.5 1074.16,-167 1064.16,-163.5 1064.16,-170.5"/>
</g>
</g>
</svg>
