<?xml version="1.0" encoding="UTF-8" standalone="no"?>
<!DOCTYPE svg PUBLIC "-//W3C//DTD SVG 1.1//EN"
 "http://www.w3.org/Graphics/SVG/1.1/DTD/svg11.dtd">
<!-- Generated by graphviz version 2.46.0 (20210119.1425)
 -->
<!-- Title: dependencies Pages: 1 -->
<svg width="2137pt" height="284pt"
 viewBox="0.00 0.00 2137.00 284.00" xmlns="http://www.w3.org/2000/svg" xmlns:xlink="http://www.w3.org/1999/xlink">
<g id="graph0" class="graph" transform="scale(1 1) rotate(0) translate(4 280)">
<title>dependencies</title>
<polygon fill="white" stroke="transparent" points="-4,4 -4,-280 2133,-280 2133,4 -4,4"/>
<text text-anchor="start" x="1043.51" y="-42.4" font-family="sans-serif" font-weight="bold" font-size="14.00">Legend</text>
<polygon fill="#ffffb3" stroke="transparent" points="830.5,-10 830.5,-30 850.5,-30 850.5,-10 830.5,-10"/>
<text text-anchor="start" x="854.13" y="-15.4" font-family="sans-serif" font-size="14.00"> &#160;Declarations</text>
<polygon fill="#8dd3c7" stroke="transparent" points="943.5,-10 943.5,-30 963.5,-30 963.5,-10 943.5,-10"/>
<text text-anchor="start" x="967.23" y="-15.4" font-family="sans-serif" font-size="14.00"> &#160;Module</text>
<polygon fill="#80b1d3" stroke="transparent" points="1029.5,-10 1029.5,-30 1049.5,-30 1049.5,-10 1029.5,-10"/>
<text text-anchor="start" x="1053.28" y="-15.4" font-family="sans-serif" font-size="14.00"> &#160;Bootstrap</text>
<polygon fill="#fdb462" stroke="transparent" points="1126.5,-10 1126.5,-30 1146.5,-30 1146.5,-10 1126.5,-10"/>
<text text-anchor="start" x="1150.17" y="-15.4" font-family="sans-serif" font-size="14.00"> &#160;Providers</text>
<polygon fill="#fb8072" stroke="transparent" points="1222.5,-10 1222.5,-30 1242.5,-30 1242.5,-10 1222.5,-10"/>
<text text-anchor="start" x="1246.23" y="-15.4" font-family="sans-serif" font-size="14.00"> &#160;Exports</text>
<g id="clust1" class="cluster">
<title>cluster_AppModule</title>
<polygon fill="none" stroke="black" stroke-dasharray="1,5" points="8,-70 8,-268 2121,-268 2121,-70 8,-70"/>
</g>
<g id="clust11" class="cluster">
<title>cluster_AppModule_bootstrap</title>
<polygon fill="none" stroke="black" points="809,-208 809,-260 933,-260 933,-208 809,-208"/>
</g>
<g id="clust12" class="cluster">
<title>cluster_AppModule_providers</title>
<polygon fill="none" stroke="black" points="1382,-78 1382,-130 2113,-130 2113,-78 1382,-78"/>
</g>
<g id="clust2" class="cluster">
<title>cluster_AppModule_declarations</title>
<polygon fill="none" stroke="black" points="390,-78 390,-130 1374,-130 1374,-78 390,-78"/>
</g>
<g id="clust9" class="cluster">
<title>cluster_AppModule_imports</title>
<polygon fill="none" stroke="black" points="16,-78 16,-130 382,-130 382,-78 16,-78"/>
</g>
<!-- AppComponent -->
<g id="node1" class="node">
<title>AppComponent</title>
<polygon fill="#ffffb3" stroke="black" points="1365.94,-122 1260.06,-122 1260.06,-86 1365.94,-86 1365.94,-122"/>
<text text-anchor="middle" x="1313" y="-99.8" font-family="Times,serif" font-size="14.00">AppComponent</text>
</g>
<!-- AppModule -->
<g id="node7" class="node">
<title>AppModule</title>
<polygon fill="#8dd3c7" stroke="black" points="912.66,-187 909.66,-191 888.66,-191 885.66,-187 829.34,-187 829.34,-151 912.66,-151 912.66,-187"/>
<text text-anchor="middle" x="871" y="-164.8" font-family="Times,serif" font-size="14.00">AppModule</text>
</g>
<!-- AppComponent&#45;&gt;AppModule -->
<g id="edge1" class="edge">
<title>AppComponent&#45;&gt;AppModule</title>
<path fill="none" stroke="black" d="M1313,-122.03C1313,-139.06 1313,-162 1313,-162 1313,-162 922.98,-162 922.98,-162"/>
<polygon fill="black" stroke="black" points="922.98,-158.5 912.98,-162 922.98,-165.5 922.98,-158.5"/>
</g>
<!-- CityDetailsContainerComponent -->
<g id="node2" class="node">
<title>CityDetailsContainerComponent</title>
<polygon fill="#ffffb3" stroke="black" points="1242.31,-122 1041.69,-122 1041.69,-86 1242.31,-86 1242.31,-122"/>
<text text-anchor="middle" x="1142" y="-99.8" font-family="Times,serif" font-size="14.00">CityDetailsContainerComponent</text>
</g>
<!-- CityDetailsContainerComponent&#45;&gt;AppModule -->
<g id="edge2" class="edge">
<title>CityDetailsContainerComponent&#45;&gt;AppModule</title>
<path fill="none" stroke="black" d="M1142,-122.24C1142,-137.57 1142,-157 1142,-157 1142,-157 922.75,-157 922.75,-157"/>
<polygon fill="black" stroke="black" points="922.75,-153.5 912.75,-157 922.75,-160.5 922.75,-153.5"/>
</g>
<!-- CitySearchComponent -->
<g id="node3" class="node">
<title>CitySearchComponent</title>
<polygon fill="#ffffb3" stroke="black" points="1023.54,-122 880.46,-122 880.46,-86 1023.54,-86 1023.54,-122"/>
<text text-anchor="middle" x="952" y="-99.8" font-family="Times,serif" font-size="14.00">CitySearchComponent</text>
</g>
<!-- CitySearchComponent&#45;&gt;AppModule -->
<g id="edge3" class="edge">
<title>CitySearchComponent&#45;&gt;AppModule</title>
<path fill="none" stroke="black" d="M896.53,-122.11C896.53,-122.11 896.53,-140.99 896.53,-140.99"/>
<polygon fill="black" stroke="black" points="893.03,-140.99 896.53,-150.99 900.03,-140.99 893.03,-140.99"/>
</g>
<!-- DashboardComponent -->
<g id="node4" class="node">
<title>DashboardComponent</title>
<polygon fill="#ffffb3" stroke="black" points="861.97,-122 720.03,-122 720.03,-86 861.97,-86 861.97,-122"/>
<text text-anchor="middle" x="791" y="-99.8" font-family="Times,serif" font-size="14.00">DashboardComponent</text>
</g>
<!-- DashboardComponent&#45;&gt;AppModule -->
<g id="edge4" class="edge">
<title>DashboardComponent&#45;&gt;AppModule</title>
<path fill="none" stroke="black" d="M845.58,-122.11C845.58,-122.11 845.58,-140.99 845.58,-140.99"/>
<polygon fill="black" stroke="black" points="842.08,-140.99 845.58,-150.99 849.08,-140.99 842.08,-140.99"/>
</g>
<!-- FavoritePlacesComponent -->
<g id="node5" class="node">
<title>FavoritePlacesComponent</title>
<polygon fill="#ffffb3" stroke="black" points="701.75,-122 538.25,-122 538.25,-86 701.75,-86 701.75,-122"/>
<text text-anchor="middle" x="620" y="-99.8" font-family="Times,serif" font-size="14.00">FavoritePlacesComponent</text>
</g>
<!-- FavoritePlacesComponent&#45;&gt;AppModule -->
<g id="edge5" class="edge">
<title>FavoritePlacesComponent&#45;&gt;AppModule</title>
<path fill="none" stroke="black" d="M647.29,-122.24C647.29,-137.57 647.29,-157 647.29,-157 647.29,-157 819.18,-157 819.18,-157"/>
<polygon fill="black" stroke="black" points="819.18,-160.5 829.18,-157 819.18,-153.5 819.18,-160.5"/>
</g>
<!-- FavoritePlacesComponent&#45;&gt;AppModule -->
<g id="edge6" class="edge">
<title>FavoritePlacesComponent&#45;&gt;AppModule</title>
<path fill="none" stroke="black" d="M592.71,-122.03C592.71,-139.06 592.71,-162 592.71,-162 592.71,-162 819.34,-162 819.34,-162"/>
<polygon fill="black" stroke="black" points="819.34,-165.5 829.34,-162 819.34,-158.5 819.34,-165.5"/>
</g>
<!-- HeaderComponent -->
<g id="node6" class="node">
<title>HeaderComponent</title>
<polygon fill="#ffffb3" stroke="black" points="519.74,-122 398.26,-122 398.26,-86 519.74,-86 519.74,-122"/>
<text text-anchor="middle" x="459" y="-99.8" font-family="Times,serif" font-size="14.00">HeaderComponent</text>
</g>
<!-- HeaderComponent&#45;&gt;AppModule -->
<g id="edge7" class="edge">
<title>HeaderComponent&#45;&gt;AppModule</title>
<path fill="none" stroke="black" d="M459,-122.22C459,-140.83 459,-167 459,-167 459,-167 819.23,-167 819.23,-167"/>
<polygon fill="black" stroke="black" points="819.23,-170.5 829.23,-167 819.23,-163.5 819.23,-170.5"/>
</g>
<!-- AppComponent  -->
<g id="node11" class="node">
<title>AppComponent </title>
<polygon fill="#80b1d3" stroke="black" points="925.44,-252 816.56,-252 816.56,-216 925.44,-216 925.44,-252"/>
<text text-anchor="middle" x="871" y="-229.8" font-family="Times,serif" font-size="14.00">AppComponent </text>
</g>
<!-- AppModule&#45;&gt;AppComponent  -->
<g id="edge11" class="edge">
<title>AppModule&#45;&gt;AppComponent </title>
<path fill="none" stroke="black" stroke-dasharray="1,5" d="M871,-187.11C871,-187.11 871,-205.99 871,-205.99"/>
<polygon fill="black" stroke="black" points="867.5,-205.99 871,-215.99 874.5,-205.99 867.5,-205.99"/>
</g>
<!-- AppRoutingModule -->
<g id="node8" class="node">
<title>AppRoutingModule</title>
<polygon fill="#8dd3c7" stroke="black" points="374.27,-122 371.27,-126 350.27,-126 347.27,-122 245.73,-122 245.73,-86 374.27,-86 374.27,-122"/>
<text text-anchor="middle" x="310" y="-99.8" font-family="Times,serif" font-size="14.00">AppRoutingModule</text>
</g>
<!-- AppRoutingModule&#45;&gt;AppModule -->
<g id="edge8" class="edge">
<title>AppRoutingModule&#45;&gt;AppModule</title>
<path fill="none" stroke="black" d="M310,-122.22C310,-142.37 310,-172 310,-172 310,-172 819.29,-172 819.29,-172"/>
<polygon fill="black" stroke="black" points="819.29,-175.5 829.29,-172 819.29,-168.5 819.29,-175.5"/>
</g>
<!-- CoreModule -->
<g id="node9" class="node">
<title>CoreModule</title>
<polygon fill="#8dd3c7" stroke="black" points="227.26,-122 224.26,-126 203.26,-126 200.26,-122 140.74,-122 140.74,-86 227.26,-86 227.26,-122"/>
<text text-anchor="middle" x="184" y="-99.8" font-family="Times,serif" font-size="14.00">CoreModule</text>
</g>
<!-- CoreModule&#45;&gt;AppModule -->
<g id="edge9" class="edge">
<title>CoreModule&#45;&gt;AppModule</title>
<path fill="none" stroke="black" d="M184,-122.04C184,-143.66 184,-177 184,-177 184,-177 819.32,-177 819.32,-177"/>
<polygon fill="black" stroke="black" points="819.32,-180.5 829.32,-177 819.32,-173.5 819.32,-180.5"/>
</g>
<!-- SharedModule -->
<g id="node10" class="node">
<title>SharedModule</title>
<polygon fill="#8dd3c7" stroke="black" points="122.42,-122 119.42,-126 98.42,-126 95.42,-122 23.58,-122 23.58,-86 122.42,-86 122.42,-122"/>
<text text-anchor="middle" x="73" y="-99.8" font-family="Times,serif" font-size="14.00">SharedModule</text>
</g>
<!-- SharedModule&#45;&gt;AppModule -->
<g id="edge10" class="edge">
<title>SharedModule&#45;&gt;AppModule</title>
<path fill="none" stroke="black" d="M73,-122.09C73,-145.13 73,-182 73,-182 73,-182 819.22,-182 819.22,-182"/>
<polygon fill="black" stroke="black" points="819.22,-185.5 829.22,-182 819.22,-178.5 819.22,-185.5"/>
</g>
<!-- DataStoreService -->
<g id="node12" class="node">
<title>DataStoreService</title>
<ellipse fill="#fdb462" stroke="black" cx="2026" cy="-104" rx="78.7" ry="18"/>
<text text-anchor="middle" x="2026" y="-99.8" font-family="Times,serif" font-size="14.00">DataStoreService</text>
</g>
<!-- DataStoreService&#45;&gt;AppModule -->
<g id="edge12" class="edge">
<title>DataStoreService&#45;&gt;AppModule</title>
<path fill="none" stroke="black" d="M2026,-122.09C2026,-145.13 2026,-182 2026,-182 2026,-182 922.79,-182 922.79,-182"/>
<polygon fill="black" stroke="black" points="922.79,-178.5 912.79,-182 922.79,-185.5 922.79,-178.5"/>
</g>
<!-- GooglePlacesService -->
<g id="node13" class="node">
<title>GooglePlacesService</title>
<ellipse fill="#fdb462" stroke="black" cx="1836" cy="-104" rx="93.17" ry="18"/>
<text text-anchor="middle" x="1836" y="-99.8" font-family="Times,serif" font-size="14.00">GooglePlacesService</text>
</g>
<!-- GooglePlacesService&#45;&gt;AppModule -->
<g id="edge13" class="edge">
<title>GooglePlacesService&#45;&gt;AppModule</title>
<path fill="none" stroke="black" d="M1836,-122.04C1836,-143.66 1836,-177 1836,-177 1836,-177 922.77,-177 922.77,-177"/>
<polygon fill="black" stroke="black" points="922.77,-173.5 912.77,-177 922.77,-180.5 922.77,-173.5"/>
</g>
<!-- OpenWeatherService -->
<g id="node14" class="node">
<title>OpenWeatherService</title>
<ellipse fill="#fdb462" stroke="black" cx="1631" cy="-104" rx="93.72" ry="18"/>
<text text-anchor="middle" x="1631" y="-99.8" font-family="Times,serif" font-size="14.00">OpenWeatherService</text>
</g>
<!-- OpenWeatherService&#45;&gt;AppModule -->
<g id="edge14" class="edge">
<title>OpenWeatherService&#45;&gt;AppModule</title>
<path fill="none" stroke="black" d="M1631,-122.22C1631,-142.37 1631,-172 1631,-172 1631,-172 922.67,-172 922.67,-172"/>
<polygon fill="black" stroke="black" points="922.67,-168.5 912.67,-172 922.67,-175.5 922.67,-168.5"/>
</g>
<!-- PlacesService -->
<g id="node15" class="node">
<title>PlacesService</title>
<ellipse fill="#fdb462" stroke="black" cx="1455" cy="-104" rx="64.82" ry="18"/>
<text text-anchor="middle" x="1455" y="-99.8" font-family="Times,serif" font-size="14.00">PlacesService</text>
</g>
<!-- PlacesService&#45;&gt;AppModule -->
<g id="edge15" class="edge">
<title>PlacesService&#45;&gt;AppModule</title>
<path fill="none" stroke="black" d="M1455,-122.22C1455,-140.83 1455,-167 1455,-167 1455,-167 923,-167 923,-167"/>
<polygon fill="black" stroke="black" points="923,-163.5 913,-167 923,-170.5 923,-163.5"/>
</g>
</g>
</svg>
