<?xml version="1.0" encoding="UTF-8" standalone="no"?>
<!DOCTYPE svg PUBLIC "-//W3C//DTD SVG 1.1//EN"
 "http://www.w3.org/Graphics/SVG/1.1/DTD/svg11.dtd">
<!-- Generated by graphviz version 2.46.0 (20210119.1425)
 -->
<!-- Title: dependencies Pages: 1 -->
<svg width="3052pt" height="360pt"
 viewBox="0.00 0.00 3052.00 360.00" xmlns="http://www.w3.org/2000/svg" xmlns:xlink="http://www.w3.org/1999/xlink">
<g id="graph0" class="graph" transform="scale(1 1) rotate(0) translate(4 356)">
<title>dependencies</title>
<polygon fill="white" stroke="transparent" points="-4,4 -4,-356 3048,-356 3048,4 -4,4"/>
<text text-anchor="start" x="1501.01" y="-42.4" font-family="sans-serif" font-weight="bold" font-size="14.00">Legend</text>
<polygon fill="#ffffb3" stroke="transparent" points="1288,-10 1288,-30 1308,-30 1308,-10 1288,-10"/>
<text text-anchor="start" x="1311.63" y="-15.4" font-family="sans-serif" font-size="14.00"> &#160;Declarations</text>
<polygon fill="#8dd3c7" stroke="transparent" points="1401,-10 1401,-30 1421,-30 1421,-10 1401,-10"/>
<text text-anchor="start" x="1424.73" y="-15.4" font-family="sans-serif" font-size="14.00"> &#160;Module</text>
<polygon fill="#80b1d3" stroke="transparent" points="1487,-10 1487,-30 1507,-30 1507,-10 1487,-10"/>
<text text-anchor="start" x="1510.78" y="-15.4" font-family="sans-serif" font-size="14.00"> &#160;Bootstrap</text>
<polygon fill="#fdb462" stroke="transparent" points="1584,-10 1584,-30 1604,-30 1604,-10 1584,-10"/>
<text text-anchor="start" x="1607.67" y="-15.4" font-family="sans-serif" font-size="14.00"> &#160;Providers</text>
<polygon fill="#fb8072" stroke="transparent" points="1680,-10 1680,-30 1700,-30 1700,-10 1680,-10"/>
<text text-anchor="start" x="1703.73" y="-15.4" font-family="sans-serif" font-size="14.00"> &#160;Exports</text>
<g id="clust1" class="cluster">
<title>cluster_AppModule</title>
<polygon fill="none" stroke="black" stroke-dasharray="1,5" points="625,-146 625,-344 2738,-344 2738,-146 625,-146"/>
</g>
<g id="clust2" class="cluster">
<title>cluster_AppModule_declarations</title>
<polygon fill="none" stroke="black" points="1746,-154 1746,-206 2730,-206 2730,-154 1746,-154"/>
</g>
<g id="clust9" class="cluster">
<title>cluster_AppModule_imports</title>
<polygon fill="none" stroke="black" points="1372,-154 1372,-206 1738,-206 1738,-154 1372,-154"/>
</g>
<g id="clust11" class="cluster">
<title>cluster_AppModule_bootstrap</title>
<polygon fill="none" stroke="black" points="1678,-284 1678,-336 1802,-336 1802,-284 1678,-284"/>
</g>
<g id="clust12" class="cluster">
<title>cluster_AppModule_providers</title>
<polygon fill="none" stroke="black" points="633,-154 633,-206 1364,-206 1364,-154 633,-154"/>
</g>
<g id="clust25" class="cluster">
<title>cluster_SharedModule</title>
<polygon fill="none" stroke="black" stroke-dasharray="1,5" points="8,-70 8,-138 3036,-138 3036,-70 8,-70"/>
</g>
<g id="clust26" class="cluster">
<title>cluster_SharedModule_declarations</title>
<polygon fill="none" stroke="black" points="970,-78 970,-130 3028,-130 3028,-78 970,-78"/>
</g>
<g id="clust39" class="cluster">
<title>cluster_SharedModule_exports</title>
<polygon fill="none" stroke="black" points="16,-78 16,-130 962,-130 962,-78 16,-78"/>
</g>
<!-- AppComponent -->
<g id="node1" class="node">
<title>AppComponent</title>
<polygon fill="#ffffb3" stroke="black" points="2721.94,-198 2616.06,-198 2616.06,-162 2721.94,-162 2721.94,-198"/>
<text text-anchor="middle" x="2669" y="-175.8" font-family="Times,serif" font-size="14.00">AppComponent</text>
</g>
<!-- AppModule -->
<g id="node7" class="node">
<title>AppModule</title>
<polygon fill="#8dd3c7" stroke="black" points="1781.66,-263 1778.66,-267 1757.66,-267 1754.66,-263 1698.34,-263 1698.34,-227 1781.66,-227 1781.66,-263"/>
<text text-anchor="middle" x="1740" y="-240.8" font-family="Times,serif" font-size="14.00">AppModule</text>
</g>
<!-- AppComponent&#45;&gt;AppModule -->
<g id="edge1" class="edge">
<title>AppComponent&#45;&gt;AppModule</title>
<path fill="none" stroke="black" d="M2669,-198.09C2669,-221.13 2669,-258 2669,-258 2669,-258 1791.72,-258 1791.72,-258"/>
<polygon fill="black" stroke="black" points="1791.72,-254.5 1781.72,-258 1791.72,-261.5 1791.72,-254.5"/>
</g>
<!-- CityDetailsContainerComponent -->
<g id="node2" class="node">
<title>CityDetailsContainerComponent</title>
<polygon fill="#ffffb3" stroke="black" points="2598.31,-198 2397.69,-198 2397.69,-162 2598.31,-162 2598.31,-198"/>
<text text-anchor="middle" x="2498" y="-175.8" font-family="Times,serif" font-size="14.00">CityDetailsContainerComponent</text>
</g>
<!-- CityDetailsContainerComponent&#45;&gt;AppModule -->
<g id="edge2" class="edge">
<title>CityDetailsContainerComponent&#45;&gt;AppModule</title>
<path fill="none" stroke="black" d="M2498,-198.04C2498,-219.66 2498,-253 2498,-253 2498,-253 1791.83,-253 1791.83,-253"/>
<polygon fill="black" stroke="black" points="1791.83,-249.5 1781.83,-253 1791.83,-256.5 1791.83,-249.5"/>
</g>
<!-- CitySearchComponent -->
<g id="node3" class="node">
<title>CitySearchComponent</title>
<polygon fill="#ffffb3" stroke="black" points="2379.54,-198 2236.46,-198 2236.46,-162 2379.54,-162 2379.54,-198"/>
<text text-anchor="middle" x="2308" y="-175.8" font-family="Times,serif" font-size="14.00">CitySearchComponent</text>
</g>
<!-- CitySearchComponent&#45;&gt;AppModule -->
<g id="edge3" class="edge">
<title>CitySearchComponent&#45;&gt;AppModule</title>
<path fill="none" stroke="black" d="M2308,-198.22C2308,-218.37 2308,-248 2308,-248 2308,-248 1791.77,-248 1791.77,-248"/>
<polygon fill="black" stroke="black" points="1791.77,-244.5 1781.77,-248 1791.77,-251.5 1791.77,-244.5"/>
</g>
<!-- DashboardComponent -->
<g id="node4" class="node">
<title>DashboardComponent</title>
<polygon fill="#ffffb3" stroke="black" points="2217.97,-198 2076.03,-198 2076.03,-162 2217.97,-162 2217.97,-198"/>
<text text-anchor="middle" x="2147" y="-175.8" font-family="Times,serif" font-size="14.00">DashboardComponent</text>
</g>
<!-- DashboardComponent&#45;&gt;AppModule -->
<g id="edge4" class="edge">
<title>DashboardComponent&#45;&gt;AppModule</title>
<path fill="none" stroke="black" d="M2147,-198.22C2147,-216.83 2147,-243 2147,-243 2147,-243 1792.02,-243 1792.02,-243"/>
<polygon fill="black" stroke="black" points="1792.02,-239.5 1782.02,-243 1792.02,-246.5 1792.02,-239.5"/>
</g>
<!-- FavoritePlacesComponent -->
<g id="node5" class="node">
<title>FavoritePlacesComponent</title>
<polygon fill="#ffffb3" stroke="black" points="2057.75,-198 1894.25,-198 1894.25,-162 2057.75,-162 2057.75,-198"/>
<text text-anchor="middle" x="1976" y="-175.8" font-family="Times,serif" font-size="14.00">FavoritePlacesComponent</text>
</g>
<!-- FavoritePlacesComponent&#45;&gt;AppModule -->
<g id="edge5" class="edge">
<title>FavoritePlacesComponent&#45;&gt;AppModule</title>
<path fill="none" stroke="black" d="M1948.71,-198.24C1948.71,-213.57 1948.71,-233 1948.71,-233 1948.71,-233 1791.73,-233 1791.73,-233"/>
<polygon fill="black" stroke="black" points="1791.73,-229.5 1781.73,-233 1791.73,-236.5 1791.73,-229.5"/>
</g>
<!-- FavoritePlacesComponent&#45;&gt;AppModule -->
<g id="edge6" class="edge">
<title>FavoritePlacesComponent&#45;&gt;AppModule</title>
<path fill="none" stroke="black" d="M2003.29,-198.03C2003.29,-215.06 2003.29,-238 2003.29,-238 2003.29,-238 1791.72,-238 1791.72,-238"/>
<polygon fill="black" stroke="black" points="1791.72,-234.5 1781.72,-238 1791.72,-241.5 1791.72,-234.5"/>
</g>
<!-- HeaderComponent -->
<g id="node6" class="node">
<title>HeaderComponent</title>
<polygon fill="#ffffb3" stroke="black" points="1875.74,-198 1754.26,-198 1754.26,-162 1875.74,-162 1875.74,-198"/>
<text text-anchor="middle" x="1815" y="-175.8" font-family="Times,serif" font-size="14.00">HeaderComponent</text>
</g>
<!-- HeaderComponent&#45;&gt;AppModule -->
<g id="edge7" class="edge">
<title>HeaderComponent&#45;&gt;AppModule</title>
<path fill="none" stroke="black" d="M1767.98,-198.11C1767.98,-198.11 1767.98,-216.99 1767.98,-216.99"/>
<polygon fill="black" stroke="black" points="1764.48,-216.99 1767.98,-226.99 1771.48,-216.99 1764.48,-216.99"/>
</g>
<!-- AppComponent  -->
<g id="node11" class="node">
<title>AppComponent </title>
<polygon fill="#80b1d3" stroke="black" points="1794.44,-328 1685.56,-328 1685.56,-292 1794.44,-292 1794.44,-328"/>
<text text-anchor="middle" x="1740" y="-305.8" font-family="Times,serif" font-size="14.00">AppComponent </text>
</g>
<!-- AppModule&#45;&gt;AppComponent  -->
<g id="edge11" class="edge">
<title>AppModule&#45;&gt;AppComponent </title>
<path fill="none" stroke="black" stroke-dasharray="1,5" d="M1740,-263.11C1740,-263.11 1740,-281.99 1740,-281.99"/>
<polygon fill="black" stroke="black" points="1736.5,-281.99 1740,-291.99 1743.5,-281.99 1736.5,-281.99"/>
</g>
<!-- AppRoutingModule -->
<g id="node8" class="node">
<title>AppRoutingModule</title>
<polygon fill="#8dd3c7" stroke="black" points="1730.27,-198 1727.27,-202 1706.27,-202 1703.27,-198 1601.73,-198 1601.73,-162 1730.27,-162 1730.27,-198"/>
<text text-anchor="middle" x="1666" y="-175.8" font-family="Times,serif" font-size="14.00">AppRoutingModule</text>
</g>
<!-- AppRoutingModule&#45;&gt;AppModule -->
<g id="edge8" class="edge">
<title>AppRoutingModule&#45;&gt;AppModule</title>
<path fill="none" stroke="black" d="M1714.28,-198.11C1714.28,-198.11 1714.28,-216.99 1714.28,-216.99"/>
<polygon fill="black" stroke="black" points="1710.78,-216.99 1714.28,-226.99 1717.78,-216.99 1710.78,-216.99"/>
</g>
<!-- CoreModule -->
<g id="node9" class="node">
<title>CoreModule</title>
<polygon fill="#8dd3c7" stroke="black" points="1583.26,-198 1580.26,-202 1559.26,-202 1556.26,-198 1496.74,-198 1496.74,-162 1583.26,-162 1583.26,-198"/>
<text text-anchor="middle" x="1540" y="-175.8" font-family="Times,serif" font-size="14.00">CoreModule</text>
</g>
<!-- CoreModule&#45;&gt;AppModule -->
<g id="edge9" class="edge">
<title>CoreModule&#45;&gt;AppModule</title>
<path fill="none" stroke="black" d="M1540,-198.24C1540,-213.57 1540,-233 1540,-233 1540,-233 1688.07,-233 1688.07,-233"/>
<polygon fill="black" stroke="black" points="1688.07,-236.5 1698.07,-233 1688.07,-229.5 1688.07,-236.5"/>
</g>
<!-- SharedModule -->
<g id="node10" class="node">
<title>SharedModule</title>
<polygon fill="#8dd3c7" stroke="black" points="1478.42,-198 1475.42,-202 1454.42,-202 1451.42,-198 1379.58,-198 1379.58,-162 1478.42,-162 1478.42,-198"/>
<text text-anchor="middle" x="1429" y="-175.8" font-family="Times,serif" font-size="14.00">SharedModule</text>
</g>
<!-- SharedModule&#45;&gt;AppModule -->
<g id="edge10" class="edge">
<title>SharedModule&#45;&gt;AppModule</title>
<path fill="none" stroke="black" d="M1429,-198.03C1429,-215.06 1429,-238 1429,-238 1429,-238 1688.06,-238 1688.06,-238"/>
<polygon fill="black" stroke="black" points="1688.06,-241.5 1698.06,-238 1688.06,-234.5 1688.06,-241.5"/>
</g>
<!-- AirPollutionCardComponent  -->
<g id="node27" class="node">
<title>AirPollutionCardComponent </title>
<polygon fill="#fb8072" stroke="black" points="954.05,-122 771.95,-122 771.95,-86 954.05,-86 954.05,-122"/>
<text text-anchor="middle" x="863" y="-99.8" font-family="Times,serif" font-size="14.00">AirPollutionCardComponent </text>
</g>
<!-- SharedModule&#45;&gt;AirPollutionCardComponent  -->
<g id="edge27" class="edge">
<title>SharedModule&#45;&gt;AirPollutionCardComponent </title>
<path fill="none" stroke="black" stroke-dasharray="5,2" d="M1386,-161.94C1386,-157.51 1386,-154 1386,-154 1386,-154 871.21,-154 871.21,-154 871.21,-154 871.21,-132.05 871.21,-132.05"/>
<polygon fill="black" stroke="black" points="874.71,-132.05 871.21,-122.05 867.71,-132.05 874.71,-132.05"/>
</g>
<!-- CountryFlagComponent  -->
<g id="node28" class="node">
<title>CountryFlagComponent </title>
<polygon fill="#fb8072" stroke="black" points="753.61,-122 598.39,-122 598.39,-86 753.61,-86 753.61,-122"/>
<text text-anchor="middle" x="676" y="-99.8" font-family="Times,serif" font-size="14.00">CountryFlagComponent </text>
</g>
<!-- SharedModule&#45;&gt;CountryFlagComponent  -->
<g id="edge28" class="edge">
<title>SharedModule&#45;&gt;CountryFlagComponent </title>
<path fill="none" stroke="black" stroke-dasharray="5,2" d="M1383.93,-161.88C1383.93,-159.03 1383.93,-157 1383.93,-157 1383.93,-157 697.57,-157 697.57,-157 697.57,-157 697.57,-132.24 697.57,-132.24"/>
<polygon fill="black" stroke="black" points="701.07,-132.24 697.57,-122.24 694.07,-132.24 701.07,-132.24"/>
</g>
<!-- PlaceCardComponent  -->
<g id="node29" class="node">
<title>PlaceCardComponent </title>
<polygon fill="#fb8072" stroke="black" points="580.36,-122 437.64,-122 437.64,-86 580.36,-86 580.36,-122"/>
<text text-anchor="middle" x="509" y="-99.8" font-family="Times,serif" font-size="14.00">PlaceCardComponent </text>
</g>
<!-- SharedModule&#45;&gt;PlaceCardComponent  -->
<g id="edge29" class="edge">
<title>SharedModule&#45;&gt;PlaceCardComponent </title>
<path fill="none" stroke="black" stroke-dasharray="5,2" d="M1381.86,-161.85C1381.86,-160.7 1381.86,-160 1381.86,-160 1381.86,-160 509,-160 509,-160 509,-160 509,-132.03 509,-132.03"/>
<polygon fill="black" stroke="black" points="512.5,-132.03 509,-122.03 505.5,-132.03 512.5,-132.03"/>
</g>
<!-- PlaceHourlyForecastComponent  -->
<g id="node30" class="node">
<title>PlaceHourlyForecastComponent </title>
<polygon fill="#fb8072" stroke="black" points="420.23,-122 217.77,-122 217.77,-86 420.23,-86 420.23,-122"/>
<text text-anchor="middle" x="319" y="-99.8" font-family="Times,serif" font-size="14.00">PlaceHourlyForecastComponent </text>
</g>
<!-- SharedModule&#45;&gt;PlaceHourlyForecastComponent  -->
<g id="edge30" class="edge">
<title>SharedModule&#45;&gt;PlaceHourlyForecastComponent </title>
<path fill="none" stroke="black" stroke-dasharray="5,2" d="M1406.51,-161.99C1406.51,-145.95 1406.51,-125 1406.51,-125 1406.51,-125 319,-125 319,-125 319,-125 319,-124.71 319,-124.71"/>
<polygon fill="black" stroke="black" points="322.5,-132.08 319,-122.08 315.5,-132.08 322.5,-132.08"/>
</g>
<!-- SmartPlaceCardComponent  -->
<g id="node31" class="node">
<title>SmartPlaceCardComponent </title>
<polygon fill="#fb8072" stroke="black" points="199.8,-122 24.2,-122 24.2,-86 199.8,-86 199.8,-122"/>
<text text-anchor="middle" x="112" y="-99.8" font-family="Times,serif" font-size="14.00">SmartPlaceCardComponent </text>
</g>
<!-- SharedModule&#45;&gt;SmartPlaceCardComponent  -->
<g id="edge31" class="edge">
<title>SharedModule&#45;&gt;SmartPlaceCardComponent </title>
<path fill="none" stroke="black" stroke-dasharray="5,2" d="M1400.39,-161.81C1400.39,-146.82 1400.39,-128 1400.39,-128 1400.39,-128 112,-128 112,-128 112,-128 112,-127.42 112,-127.42"/>
<polygon fill="black" stroke="black" points="115.5,-132.19 112,-122.19 108.5,-132.19 115.5,-132.19"/>
</g>
<!-- DataStoreService -->
<g id="node12" class="node">
<title>DataStoreService</title>
<ellipse fill="#fdb462" stroke="black" cx="1277" cy="-180" rx="78.7" ry="18"/>
<text text-anchor="middle" x="1277" y="-175.8" font-family="Times,serif" font-size="14.00">DataStoreService</text>
</g>
<!-- DataStoreService&#45;&gt;AppModule -->
<g id="edge12" class="edge">
<title>DataStoreService&#45;&gt;AppModule</title>
<path fill="none" stroke="black" d="M1277,-198.22C1277,-216.83 1277,-243 1277,-243 1277,-243 1688.1,-243 1688.1,-243"/>
<polygon fill="black" stroke="black" points="1688.1,-246.5 1698.1,-243 1688.1,-239.5 1688.1,-246.5"/>
</g>
<!-- GooglePlacesService -->
<g id="node13" class="node">
<title>GooglePlacesService</title>
<ellipse fill="#fdb462" stroke="black" cx="1087" cy="-180" rx="93.17" ry="18"/>
<text text-anchor="middle" x="1087" y="-175.8" font-family="Times,serif" font-size="14.00">GooglePlacesService</text>
</g>
<!-- GooglePlacesService&#45;&gt;AppModule -->
<g id="edge13" class="edge">
<title>GooglePlacesService&#45;&gt;AppModule</title>
<path fill="none" stroke="black" d="M1087,-198.22C1087,-218.37 1087,-248 1087,-248 1087,-248 1688.16,-248 1688.16,-248"/>
<polygon fill="black" stroke="black" points="1688.16,-251.5 1698.16,-248 1688.16,-244.5 1688.16,-251.5"/>
</g>
<!-- OpenWeatherService -->
<g id="node14" class="node">
<title>OpenWeatherService</title>
<ellipse fill="#fdb462" stroke="black" cx="882" cy="-180" rx="93.72" ry="18"/>
<text text-anchor="middle" x="882" y="-175.8" font-family="Times,serif" font-size="14.00">OpenWeatherService</text>
</g>
<!-- OpenWeatherService&#45;&gt;AppModule -->
<g id="edge14" class="edge">
<title>OpenWeatherService&#45;&gt;AppModule</title>
<path fill="none" stroke="black" d="M882,-198.04C882,-219.66 882,-253 882,-253 882,-253 1688.33,-253 1688.33,-253"/>
<polygon fill="black" stroke="black" points="1688.33,-256.5 1698.33,-253 1688.33,-249.5 1688.33,-256.5"/>
</g>
<!-- PlacesService -->
<g id="node15" class="node">
<title>PlacesService</title>
<ellipse fill="#fdb462" stroke="black" cx="706" cy="-180" rx="64.82" ry="18"/>
<text text-anchor="middle" x="706" y="-175.8" font-family="Times,serif" font-size="14.00">PlacesService</text>
</g>
<!-- PlacesService&#45;&gt;AppModule -->
<g id="edge15" class="edge">
<title>PlacesService&#45;&gt;AppModule</title>
<path fill="none" stroke="black" d="M706,-198.09C706,-221.13 706,-258 706,-258 706,-258 1688.19,-258 1688.19,-258"/>
<polygon fill="black" stroke="black" points="1688.19,-261.5 1698.19,-258 1688.19,-254.5 1688.19,-261.5"/>
</g>
<!-- AirPollutionCardComponent -->
<g id="node16" class="node">
<title>AirPollutionCardComponent</title>
<polygon fill="#ffffb3" stroke="black" points="3020.05,-122 2841.95,-122 2841.95,-86 3020.05,-86 3020.05,-122"/>
<text text-anchor="middle" x="2931" y="-99.8" font-family="Times,serif" font-size="14.00">AirPollutionCardComponent</text>
</g>
<!-- AirPollutionCardComponent&#45;&gt;SharedModule -->
<g id="edge16" class="edge">
<title>AirPollutionCardComponent&#45;&gt;SharedModule</title>
<path fill="none" stroke="black" d="M2931,-122.06C2931,-133.44 2931,-146 2931,-146 2931,-146 1470.92,-146 1470.92,-146 1470.92,-146 1470.92,-151.81 1470.92,-151.81"/>
<polygon fill="black" stroke="black" points="1467.42,-151.81 1470.92,-161.81 1474.42,-151.81 1467.42,-151.81"/>
</g>
<!-- AirQualityIndexPipe -->
<g id="node17" class="node">
<title>AirQualityIndexPipe</title>
<polygon fill="#ffffb3" stroke="black" points="2823.91,-122 2690.09,-122 2690.09,-86 2823.91,-86 2823.91,-122"/>
<text text-anchor="middle" x="2757" y="-99.8" font-family="Times,serif" font-size="14.00">AirQualityIndexPipe</text>
</g>
<!-- AirQualityIndexPipe&#45;&gt;SharedModule -->
<g id="edge17" class="edge">
<title>AirQualityIndexPipe&#45;&gt;SharedModule</title>
<path fill="none" stroke="black" d="M2706.01,-122.13C2706.01,-132.71 2706.01,-144 2706.01,-144 2706.01,-144 1463.64,-144 1463.64,-144 1463.64,-144 1463.64,-151.58 1463.64,-151.58"/>
<polygon fill="black" stroke="black" points="1460.14,-151.58 1463.64,-161.58 1467.14,-151.58 1460.14,-151.58"/>
</g>
<!-- CountryFlagComponent -->
<g id="node18" class="node">
<title>CountryFlagComponent</title>
<polygon fill="#ffffb3" stroke="black" points="2672.11,-122 2519.89,-122 2519.89,-86 2672.11,-86 2672.11,-122"/>
<text text-anchor="middle" x="2596" y="-99.8" font-family="Times,serif" font-size="14.00">CountryFlagComponent</text>
</g>
<!-- CountryFlagComponent&#45;&gt;SharedModule -->
<g id="edge18" class="edge">
<title>CountryFlagComponent&#45;&gt;SharedModule</title>
<path fill="none" stroke="black" d="M2559.05,-122.07C2559.05,-131.46 2559.05,-141 2559.05,-141 2559.05,-141 1456.35,-141 1456.35,-141 1456.35,-141 1456.35,-151.87 1456.35,-151.87"/>
<polygon fill="black" stroke="black" points="1452.85,-151.87 1456.35,-161.87 1459.85,-151.87 1452.85,-151.87"/>
</g>
<!-- CurrentWeatherDetailsContainerComponent -->
<g id="node19" class="node">
<title>CurrentWeatherDetailsContainerComponent</title>
<polygon fill="#ffffb3" stroke="black" points="2502.37,-122 2235.63,-122 2235.63,-86 2502.37,-86 2502.37,-122"/>
<text text-anchor="middle" x="2369" y="-99.8" font-family="Times,serif" font-size="14.00">CurrentWeatherDetailsContainerComponent</text>
</g>
<!-- CurrentWeatherDetailsContainerComponent&#45;&gt;SharedModule -->
<g id="edge19" class="edge">
<title>CurrentWeatherDetailsContainerComponent&#45;&gt;SharedModule</title>
<path fill="none" stroke="black" d="M2308,-122.19C2308,-130.28 2308,-138 2308,-138 2308,-138 1449.07,-138 1449.07,-138 1449.07,-138 1449.07,-151.94 1449.07,-151.94"/>
<polygon fill="black" stroke="black" points="1445.57,-151.94 1449.07,-161.94 1452.57,-151.94 1445.57,-151.94"/>
</g>
<!-- CurrentWeatherSummaryContainerComponent -->
<g id="node20" class="node">
<title>CurrentWeatherSummaryContainerComponent</title>
<polygon fill="#ffffb3" stroke="black" points="2217.65,-122 1936.35,-122 1936.35,-86 2217.65,-86 2217.65,-122"/>
<text text-anchor="middle" x="2077" y="-99.8" font-family="Times,serif" font-size="14.00">CurrentWeatherSummaryContainerComponent</text>
</g>
<!-- CurrentWeatherSummaryContainerComponent&#45;&gt;SharedModule -->
<g id="edge20" class="edge">
<title>CurrentWeatherSummaryContainerComponent&#45;&gt;SharedModule</title>
<path fill="none" stroke="black" d="M1997.15,-122.24C1997.15,-129.43 1997.15,-136 1997.15,-136 1997.15,-136 1441.78,-136 1441.78,-136 1441.78,-136 1441.78,-151.85 1441.78,-151.85"/>
<polygon fill="black" stroke="black" points="1438.28,-151.85 1441.78,-161.85 1445.28,-151.85 1438.28,-151.85"/>
</g>
<!-- InfoCardComponent -->
<g id="node21" class="node">
<title>InfoCardComponent</title>
<polygon fill="#ffffb3" stroke="black" points="1917.87,-122 1786.13,-122 1786.13,-86 1917.87,-86 1917.87,-122"/>
<text text-anchor="middle" x="1852" y="-99.8" font-family="Times,serif" font-size="14.00">InfoCardComponent</text>
</g>
<!-- InfoCardComponent&#45;&gt;SharedModule -->
<g id="edge21" class="edge">
<title>InfoCardComponent&#45;&gt;SharedModule</title>
<path fill="none" stroke="black" d="M1830.97,-122.2C1830.97,-128.03 1830.97,-133 1830.97,-133 1830.97,-133 1434.49,-133 1434.49,-133 1434.49,-133 1434.49,-151.96 1434.49,-151.96"/>
<polygon fill="black" stroke="black" points="1430.99,-151.96 1434.49,-161.96 1437.99,-151.96 1430.99,-151.96"/>
</g>
<!-- PlaceCardComponent -->
<g id="node22" class="node">
<title>PlaceCardComponent</title>
<polygon fill="#ffffb3" stroke="black" points="1768.36,-122 1629.64,-122 1629.64,-86 1768.36,-86 1768.36,-122"/>
<text text-anchor="middle" x="1699" y="-99.8" font-family="Times,serif" font-size="14.00">PlaceCardComponent</text>
</g>
<!-- PlaceCardComponent&#45;&gt;SharedModule -->
<g id="edge22" class="edge">
<title>PlaceCardComponent&#45;&gt;SharedModule</title>
<path fill="none" stroke="black" d="M1679.98,-122.06C1679.98,-126.49 1679.98,-130 1679.98,-130 1679.98,-130 1427.21,-130 1427.21,-130 1427.21,-130 1427.21,-151.95 1427.21,-151.95"/>
<polygon fill="black" stroke="black" points="1423.71,-151.95 1427.21,-161.95 1430.71,-151.95 1423.71,-151.95"/>
</g>
<!-- PlaceHourlyForecastComponent -->
<g id="node23" class="node">
<title>PlaceHourlyForecastComponent</title>
<polygon fill="#ffffb3" stroke="black" points="1611.23,-122 1412.77,-122 1412.77,-86 1611.23,-86 1611.23,-122"/>
<text text-anchor="middle" x="1512" y="-99.8" font-family="Times,serif" font-size="14.00">PlaceHourlyForecastComponent</text>
</g>
<!-- PlaceHourlyForecastComponent&#45;&gt;SharedModule -->
<g id="edge23" class="edge">
<title>PlaceHourlyForecastComponent&#45;&gt;SharedModule</title>
<path fill="none" stroke="black" d="M1419.92,-122.01C1419.92,-122.01 1419.92,-151.85 1419.92,-151.85"/>
<polygon fill="black" stroke="black" points="1416.42,-151.85 1419.92,-161.85 1423.42,-151.85 1416.42,-151.85"/>
</g>
<!-- RoundoffPipe -->
<g id="node24" class="node">
<title>RoundoffPipe</title>
<polygon fill="#ffffb3" stroke="black" points="1394.05,-122 1299.95,-122 1299.95,-86 1394.05,-86 1394.05,-122"/>
<text text-anchor="middle" x="1347" y="-99.8" font-family="Times,serif" font-size="14.00">RoundoffPipe</text>
</g>
<!-- RoundoffPipe&#45;&gt;SharedModule -->
<g id="edge24" class="edge">
<title>RoundoffPipe&#45;&gt;SharedModule</title>
<path fill="none" stroke="black" d="M1392.2,-122.01C1392.2,-122.01 1392.2,-151.85 1392.2,-151.85"/>
<polygon fill="black" stroke="black" points="1388.7,-151.85 1392.2,-161.85 1395.7,-151.85 1388.7,-151.85"/>
</g>
<!-- SmartPlaceCardComponent -->
<g id="node25" class="node">
<title>SmartPlaceCardComponent</title>
<polygon fill="#ffffb3" stroke="black" points="1282.3,-122 1109.7,-122 1109.7,-86 1282.3,-86 1282.3,-122"/>
<text text-anchor="middle" x="1196" y="-99.8" font-family="Times,serif" font-size="14.00">SmartPlaceCardComponent</text>
</g>
<!-- SmartPlaceCardComponent&#45;&gt;SharedModule -->
<g id="edge25" class="edge">
<title>SmartPlaceCardComponent&#45;&gt;SharedModule</title>
<path fill="none" stroke="black" d="M1240.27,-122.04C1240.27,-134.56 1240.27,-149 1240.27,-149 1240.27,-149 1390.13,-149 1390.13,-149 1390.13,-149 1390.13,-151.97 1390.13,-151.97"/>
<polygon fill="black" stroke="black" points="1386.63,-151.97 1390.13,-161.97 1393.63,-151.97 1386.63,-151.97"/>
</g>
<!-- WeatherIconPipe -->
<g id="node26" class="node">
<title>WeatherIconPipe</title>
<polygon fill="#ffffb3" stroke="black" points="1091.67,-122 978.33,-122 978.33,-86 1091.67,-86 1091.67,-122"/>
<text text-anchor="middle" x="1035" y="-99.8" font-family="Times,serif" font-size="14.00">WeatherIconPipe</text>
</g>
<!-- WeatherIconPipe&#45;&gt;SharedModule -->
<g id="edge26" class="edge">
<title>WeatherIconPipe&#45;&gt;SharedModule</title>
<path fill="none" stroke="black" d="M1042.75,-122.15C1042.75,-135.74 1042.75,-152 1042.75,-152 1042.75,-152 1388.07,-152 1388.07,-152 1388.07,-152 1388.07,-152.98 1388.07,-152.98"/>
<polygon fill="black" stroke="black" points="1384.57,-151.79 1388.07,-161.79 1391.57,-151.79 1384.57,-151.79"/>
</g>
</g>
</svg>
